<svg xmlns="http://www.w3.org/2000/svg" viewBox="0 0 604.97 110.88"><title>artfair-lol-logo</title><g id="Layer_2" data-name="Layer 2"><g id="Layer_1-2" data-name="Layer 1"><path d="M66.45,89.16H30.16l-6.68,20.32H0L38,7.1H58.5L96.68,109.48H73.13ZM60.54,71.3,48.23,34,36,71.3Z"/><path d="M145.41,32.24a18.63,18.63,0,0,1,3,.6l-.28,20.53a55.37,55.37,0,0,0-7.52-.56q-11.39,0-14.84,7.52v49.15H104.48V33.4h20l.63,9.21a21,21,0,0,1,7.14-7.87A17.8,17.8,0,0,1,142,32,25.9,25.9,0,0,1,145.41,32.24Z"/><path d="M199.9,93v16a37,37,0,0,1-12.52,2Q165,110.88,165,88.1V48.87H154.27V33.4H165V14.55h21.23V33.4h12.8V48.87h-12.8V85.64q0,4.5,1.76,6.15t6,1.65A30.59,30.59,0,0,0,199.9,93Z"/><path d="M239.55,19.69a9,9,0,0,0-3,7.24V33.4h15V48.87h-15v60.61H215.37V48.87H204.12V33.4h11.25V26.93a29.33,29.33,0,0,1,3.41-14.62,22.17,22.17,0,0,1,9.77-9.18,33.68,33.68,0,0,1,15-3.13,42.7,42.7,0,0,1,10.62,1.41L254,17.79a25.55,25.55,0,0,0-6.12-.63Q242.51,17.16,239.55,19.69Z"/><path d="M324.49,101.18a27.46,27.46,0,0,0,2.32,7.1v1.2h-21.3a22.54,22.54,0,0,1-2-6.82q-7.24,8.23-19.05,8.23a28.83,28.83,0,0,1-13.08-3A23.38,23.38,0,0,1,262,99.77,20.94,20.94,0,0,1,258.61,88q0-12,8.93-18.53t26.3-6.5h8.65V58.71q0-5.27-2.67-8.19t-8-2.92q-4.85,0-7.56,2.29a8,8,0,0,0-2.71,6.5H260.3a20.53,20.53,0,0,1,4-12.37,27.22,27.22,0,0,1,11.46-8.79A42.51,42.51,0,0,1,292.92,32a39.75,39.75,0,0,1,16,3,24.14,24.14,0,0,1,10.9,9.07,26.49,26.49,0,0,1,3.94,14.77V90.7A57.2,57.2,0,0,0,324.49,101.18Zm-27.14-8.4a13.11,13.11,0,0,0,5.13-4.89V75.16H294.4q-7.38,0-11,3.2a10.59,10.59,0,0,0-3.62,8.33,7.4,7.4,0,0,0,2.57,5.84,10,10,0,0,0,6.86,2.25A16.19,16.19,0,0,0,297.35,92.78Z"/><path d="M359.05,5.87a10.26,10.26,0,0,1,3.27,7.84,10.26,10.26,0,0,1-3.27,7.84,13.56,13.56,0,0,1-17.16,0,10.26,10.26,0,0,1-3.27-7.84,10.26,10.26,0,0,1,3.27-7.84,13.56,13.56,0,0,1,17.16,0ZM339.89,109.48V33.4h21.3v76.08Z"/><path d="M418.36,32.24a18.6,18.6,0,0,1,3,.6L421,53.37a55.36,55.36,0,0,0-7.52-.56q-11.39,0-14.84,7.52v49.15H377.44V33.4h20l.63,9.21a21,21,0,0,1,7.14-7.87A17.8,17.8,0,0,1,414.91,32,25.9,25.9,0,0,1,418.36,32.24Z"/><path d="M439.66,89.23a10.47,10.47,0,0,1,4.22,4,11.86,11.86,0,0,1,0,11.46,10.47,10.47,0,0,1-4.22,4,13,13,0,0,1-6.26,1.48,12.78,12.78,0,0,1-6.22-1.48,10.52,10.52,0,0,1-4.18-4,11.86,11.86,0,0,1,0-11.46,10.53,10.53,0,0,1,4.18-4,12.78,12.78,0,0,1,6.22-1.48A13,13,0,0,1,439.66,89.23Z"/><path d="M463.78,109.48V1.48h21.3v108Z"/><path d="M502.42,50.77A32.29,32.29,0,0,1,514.83,37q8.16-5,19.48-5t19.58,5a32.24,32.24,0,0,1,12.45,13.78,45.27,45.27,0,0,1,4.25,20v1.48a45,45,0,0,1-4.25,19.93,32.34,32.34,0,0,1-12.41,13.75q-8.16,5-19.48,5t-19.58-5a32.26,32.26,0,0,1-12.45-13.75,45,45,0,0,1-4.25-19.93V70.73A45.26,45.26,0,0,1,502.42,50.77ZM523,87.93q3.59,5.87,11.46,5.87t11.32-5.91q3.59-5.91,3.59-15.68V70.73q0-9.7-3.59-15.68t-11.46-6q-7.74,0-11.32,6T519.4,70.73v1.48Q519.4,82.06,523,87.93Z"/><path d="M583.66,109.48V1.48H605v108Z"/></g></g></svg>