<?xml version="1.0" encoding="utf-8"?>
<!-- Generator: Adobe Illustrator 20.1.0, SVG Export Plug-In . SVG Version: 6.00 Build 0)  -->
<svg version="1.1" id="Layer_1" xmlns="http://www.w3.org/2000/svg" xmlns:xlink="http://www.w3.org/1999/xlink" x="0px" y="0px"
	 viewBox="0 0 795.6 927.2" style="enable-background:new 0 0 795.6 927.2;" xml:space="preserve">
<title>globie-logo</title>
<g id="Layer_2">
	<g id="Layer_1-2">
		<path d="M552.5,764.1c202.3-85.4,297.1-318.7,211.6-521.1S445.4-54,243.1,31.4S-54,350.2,31.4,552.5
			c40.3,95.4,116.2,171.3,211.6,211.6c11.1,4.7,23,8.9,34,12.5v71.7c-16-11.2-80-54.2-127.5-32.5c-54.3,24.7-6.8,134.7,130.9,106.8
			c88.7-17.9,81-59.8,75.2-66.5c-2.7-3-6.6-4.7-10.6-4.7V792c17.5,2.3,35.1,3.4,52.7,3.4c21.5,0,43-1.7,64.3-5.1v61.2
			c-4.1,0-8,1.8-10.8,4.7c-5.9,6.6-13.4,48.5,75.3,66.5c137.7,27.8,185.1-82.1,130.8-106.8c-47.5-21.6-112.3,21.4-127.3,32.5v-75.6
			C538.1,770.1,545.1,767.3,552.5,764.1z M303.6,512.8c-2,0-4-0.2-6-0.7c-17.8-3.9-35.3-24.6-48-56.8c-14-35.5-20.6-80.4-18.6-126.2
			c4-91,39.5-147.3,70.1-147.3c2,0,4,0.2,6,0.7c13,2.9,25.9,14.8,36.9,33.6c-3.6-1.1-7.4-1.5-11.1-1.2
			c-25.8,2.2-43.7,38.4-40.1,80.8s27.5,75,53.3,72.8c11-0.9,20.5-8,27.6-19.1c0,3.2,0.1,6.5,0.2,9.7c-0.1,2.1-0.1,4.3-0.2,6.4
			C369.7,456.5,334.2,512.8,303.6,512.8z M222.1,466.3c2.6,6.6,5.4,12.7,8.3,18.5c-38.4-3.8-75.7-8.1-108.5-12.3
			c-3.5-21.8-5.5-42.9-5.5-62.3c0-24.6,3-52,7.9-80.2c24.1-3.6,50.4-7.3,77.6-10.7c-0.2,2.8-0.3,5.7-0.5,8.6
			C199.2,377.8,206.5,426.9,222.1,466.3z M389.4,451.3c1.7,5.1,3.4,10.1,5.4,14.9c3.9,10.2,8.7,20,14.3,29.4
			c-12.3,0-25.2-0.3-38.5-0.8C378.5,481.1,384.8,466.5,389.4,451.3L389.4,451.3z M422.3,455.4c-11-27.7-17.4-61.1-18.7-96.2
			c0.2-7.9,0.1-15.7-0.1-23.5c0.1-2.1,0.1-4.3,0.2-6.4c4-91,39.5-147.3,70.1-147.3c2,0,4,0.2,6,0.7c13.1,2.9,26.1,14.9,37.1,34
			c-4-1.4-8.2-1.9-12.4-1.6c-25.8,2.2-43.7,38.4-40.1,80.8s27.5,75,53.3,72.8c11.7-1,21.8-9,29-21.4c0,6.1-0.1,12.2-0.3,18.4
			c-4,91-39.5,147.3-70.1,147.3c-2,0-4-0.2-6-0.7C452.5,508.3,435,487.6,422.3,455.4L422.3,455.4z M574.9,316.1
			c37.5,3.7,74,8,106.1,12c3.5,21.8,5.5,42.9,5.5,62.3c0,24.6-3,52-7.9,80.2c-39.6,6-85.3,12.1-131.3,16.8
			c16.1-30.8,26.5-72.6,28.7-120.6C576.7,349.9,576.4,333,574.9,316.1z M514.6,528.6c5.6-4.3,10.6-9.2,15.2-14.6
			c49.8-4.6,100.1-11.2,143.9-17.6c-10.2,49-25,98.9-38.7,140.4c-41.4,14.4-89.4,29.1-135.9,38.5
			C504.6,631.1,510.4,579.7,514.6,528.6L514.6,528.6z M645.8,676.5c2.4-6.9,4.9-14.1,7.5-21.7c7.8-2.8,15.3-5.5,22.5-8.2
			C666.4,657.1,656.4,667,645.8,676.5L645.8,676.5z M704.1,610.8c-12,4.9-26.1,10.3-41.6,16.1c0.8-2.5,1.6-5,2.4-7.5
			c14.6-46.5,25.6-88.7,33.1-126.6c24.4-3.8,45.9-7.4,63.2-10.4C750.5,528.4,731.1,572,704.1,610.8z M766.3,339.7
			c6,38.7,6,78-0.1,116.7c-16.6,2.9-38.5,6.6-63.7,10.6c4.6-28.4,6.9-54,6.9-76.5c-0.1-19.9-1.7-39.7-4.7-59.3
			C729.4,334.4,750.5,337.4,766.3,339.7L766.3,339.7z M761.4,314c-16.4-2.3-37.2-5.2-60.9-8.3c-7.3-38.5-19-81.8-35-129.6
			c17.1,6,31.9,11.4,43.5,15.8C733.6,229.1,751.4,270.5,761.4,314L761.4,314z M683.7,158.1c-8.6-3.1-17.9-6.3-27.8-9.7
			c-3.8-10.7-7.6-20.9-11.2-30.4C658.6,130.4,671.7,143.8,683.7,158.1z M676.4,302.7c-32-4-67.8-8.1-104.5-11.7
			c-3.2-21.4-8.8-42.4-16.6-62.5c-13.4-34-32-57.8-53.4-69c-1.5-10.8-3-21.2-4.5-31.4c49,10.2,98.9,24.9,140.4,38.6
			C652.3,208.1,667,256.1,676.4,302.7L676.4,302.7z M608.8,90.1c5.6,13.6,12.2,30.3,19.2,49.2l-7.5-2.4
			c-46.5-14.6-88.7-25.6-126.6-33.1c-4.2-27.4-8.3-51.2-11.5-69.5C527.6,44.8,570.5,63.7,608.8,90.1z M341.7,28.8
			c38-5.7,76.7-5.6,114.6,0.4c3.1,17.2,7.2,41.4,11.7,69.9c-28.4-4.6-54-6.9-76.5-6.9c-19.9,0.1-39.7,1.7-59.3,4.7
			C336,68.7,339.3,45.1,341.7,28.8z M391.6,115.2c24.6,0,52,3,80.2,7.9c1.4,9.4,2.8,19.1,4.2,29.2c-0.8,0-1.5-0.1-2.2-0.1
			c-37,0-68.4,35.5-85.8,91.2c-1.7-5.1-3.4-10.1-5.4-14.9c-14.4-36.3-34.6-61.1-57.9-71.2c1.5-12.6,3-24.9,4.5-36.6
			C351.1,117.3,372.1,115.2,391.6,115.2z M196.6,83.5c36.6-23.5,77-40.4,119.5-49.8c-2.5,17.3-5.7,40.6-9.2,67.6
			c-38.5,7.3-81.8,19-129.6,35.1C184.9,114.2,191.7,95.9,196.6,83.5L196.6,83.5z M303.8,125.4c-1.1,8.7-2.2,17.7-3.3,26.9
			c-46.9,0.5-84.9,58.2-96.2,141.8c-26.2,3.2-51.6,6.7-75.2,10.2c10.2-49,24.9-98.9,38.6-140.4C209.2,149.4,257.3,134.8,303.8,125.4
			L303.8,125.4z M162.9,107.8c-4.1,11.3-8.6,24.1-13.4,38.1c-14.4,5.1-27.9,10.2-40.1,15C125.4,141.4,143.3,123.7,162.9,107.8z
			 M83.9,196c14.7-6.1,34.1-13.9,56.5-22.2c-0.8,2.5-1.6,5-2.4,7.5c-14.6,46.6-25.7,88.8-33.1,126.6c-28.7,4.5-53.6,8.7-72.1,11.9
			C42.1,275.8,59.4,233.8,83.9,196L83.9,196z M29.8,460c-6.3-37.8-6.8-76.3-1.6-114.2c17.4-3.1,42.4-7.4,72.1-12.1
			c-4.6,28.4-6.9,54-6.9,76.5c0.1,19.9,1.7,39.7,4.7,59.3C69.7,465.7,46.1,462.4,29.8,460L29.8,460z M35.1,485.7
			c17.3,2.5,40.4,5.7,67.3,9.2c7.3,38.5,19,81.8,35.1,129.6c-19.9-6.9-36.6-13.2-48.9-17.8C63.6,569.9,45.5,528.9,35.1,485.7
			L35.1,485.7z M114.8,641c9.8,3.5,20.7,7.3,32.2,11.2c4.1,11.4,8.1,22.2,12,32.3C143.1,671.2,128.3,656.7,114.8,641L114.8,641z
			 M126.5,498c36.7,4.5,78.4,9.3,120.8,13.2c12.3,15.3,26.4,25.3,41.6,29.3c4.5,45.9,10.5,91.7,16.5,132
			c-49-10.2-98.9-25-140.4-38.6C150.5,592.5,135.8,544.5,126.5,498L126.5,498z M194,710.4c-5.6-13.6-12.1-30.2-19.1-49l7.5,2.4
			c46.5,14.6,88.7,25.6,126.6,33.1c4,25.6,7.7,48.2,10.8,65.9C275.1,753.2,232.3,735.5,194,710.4L194,710.4z M462.1,765.4
			c-38.4,6.7-77.7,7.3-116.3,1.9c-3-16.9-6.9-39.5-11-65.8c28.4,4.6,54,6.9,76.5,6.9c19.9-0.1,39.7-1.7,59.3-4.7
			C467.3,728.4,464.3,749.6,462.1,765.4L462.1,765.4z M411.3,685.4c-24.6,0-52-3-80.2-7.9c-6.2-41-12.5-88.4-17.3-136
			c14.2-2.6,27.3-10.5,39-22.7c20.4,1,40.1,1.5,58.5,1.5c5.5,0,11-0.1,16.7-0.2c11,11,23.1,18.1,36,20.9c4,0.9,8.2,1.3,12.3,1.3
			c4.2,0,8.4-0.5,12.5-1.4c-4.4,48.8-9.9,97.4-15.1,138.8C451.8,683.4,430.7,685.4,411.3,685.4L411.3,685.4z M487.8,760
			c2.3-16.4,5.2-37,8.2-60.5c38.5-7.3,81.8-19,129.6-35c-5.3,15.1-10.1,28.4-14.2,39.3C574.1,729.9,532.1,749,487.8,760L487.8,760z"
			/>
	</g>
</g>
<circle cx="1333.8" cy="397.8" r="397.8"/>
</svg>
