<?xml version="1.0" encoding="utf-8"?>
<!-- Generator: Adobe Illustrator 20.1.0, SVG Export Plug-In . SVG Version: 6.00 Build 0)  -->
<svg version="1.1" id="Layer_1" xmlns="http://www.w3.org/2000/svg" xmlns:xlink="http://www.w3.org/1999/xlink" x="0px" y="0px"
	 viewBox="0 0 795.3 927.1" style="enable-background:new 0 0 795.3 927.1;" xml:space="preserve">
<style type="text/css">
	.st0{fill:#FFFFFF;}
</style>
<title>globie-logo</title>
<g id="Layer_2">
	<g id="Layer_1-2">
		<path class="st0" d="M552.4,764c202.3-85.4,297.1-318.7,211.6-521.1S445.3-54.1,243,31.3S-54.1,350,31.4,552.4
			C71.7,647.8,147.6,723.7,243,764c11.1,4.7,23,8.9,34,12.5v71.7c-16-11.2-80-54.2-127.5-32.5c-54.3,24.7-6.8,134.7,130.9,106.8
			c88.7-17.9,81-59.8,75.2-66.5c-2.7-3-6.6-4.7-10.6-4.7v-59.5c17.5,2.3,35.1,3.4,52.7,3.4c21.5,0,43-1.7,64.3-5.1v61.2
			c-4.1,0-8,1.8-10.8,4.7c-5.9,6.6-13.4,48.5,75.3,66.5c137.7,27.8,185.1-82.1,130.8-106.8c-47.5-21.6-112.3,21.4-127.3,32.5v-75.6
			C538.1,770,545,767.2,552.4,764z M303.5,512.7c-2,0-4-0.2-6-0.7c-17.8-3.9-35.3-24.6-48-56.8c-14-35.5-20.6-80.4-18.6-126.2
			c4-91,39.5-147.3,70.1-147.3c2,0,4,0.2,6,0.7c13,2.9,25.9,14.8,36.9,33.6c-3.6-1.1-7.4-1.5-11.1-1.2
			c-25.8,2.2-43.7,38.4-40.1,80.8s27.5,75,53.3,72.8c11-0.9,20.5-8,27.6-19.1c0,3.2,0.1,6.5,0.2,9.7c-0.1,2.1-0.1,4.3-0.2,6.4
			C369.6,456.4,334.1,512.7,303.5,512.7z M222,466.1c2.6,6.6,5.4,12.7,8.3,18.5c-38.4-3.8-75.7-8.1-108.5-12.3
			c-3.5-21.8-5.5-42.9-5.5-62.3c0-24.6,3-52,7.9-80.2c24.1-3.6,50.4-7.3,77.6-10.7c-0.2,2.8-0.3,5.7-0.5,8.6
			C199.1,377.6,206.4,426.8,222,466.1z M389.3,451.2c1.7,5.1,3.4,10.1,5.4,14.9c3.9,10.2,8.7,20,14.3,29.4
			c-12.3,0-25.2-0.3-38.5-0.8C378.4,481,384.7,466.4,389.3,451.2L389.3,451.2z M422.2,455.2c-11-27.7-17.4-61.1-18.7-96.2
			c0.2-7.9,0.1-15.7-0.1-23.5c0.1-2.1,0.1-4.3,0.2-6.4c4-91,39.5-147.3,70.1-147.3c2,0,4,0.2,6,0.7c13.1,2.9,26.1,14.9,37.1,34
			c-4-1.4-8.2-1.9-12.4-1.6c-25.8,2.2-43.7,38.4-40.1,80.8s27.5,75,53.3,72.8c11.7-1,21.8-9,29-21.4c0,6.1-0.1,12.2-0.3,18.4
			c-4,91-39.5,147.3-70.1,147.3c-2,0-4-0.2-6-0.7C452.4,508.2,434.9,487.5,422.2,455.2L422.2,455.2z M574.9,316
			c37.5,3.7,74,8,106.1,12c3.5,21.8,5.5,42.9,5.5,62.3c0,24.6-3,52-7.9,80.2c-39.6,6-85.3,12.1-131.3,16.8
			c16.1-30.8,26.5-72.6,28.7-120.6C576.7,349.8,576.3,332.9,574.9,316z M514.6,528.5c5.6-4.3,10.6-9.2,15.2-14.6
			c49.8-4.6,100.1-11.2,143.9-17.6c-10.2,49-25,98.9-38.7,140.4c-41.4,14.4-89.4,29.1-135.9,38.5C504.5,631,510.3,579.5,514.6,528.5
			L514.6,528.5z M645.8,676.3c2.4-6.9,4.9-14.1,7.5-21.7c7.8-2.8,15.3-5.5,22.5-8.2C666.3,656.9,656.3,666.9,645.8,676.3
			L645.8,676.3z M704,610.7c-12,4.9-26.1,10.3-41.6,16.1c0.8-2.5,1.6-5,2.4-7.5c14.6-46.5,25.6-88.7,33.1-126.6
			c24.4-3.8,45.9-7.4,63.2-10.4C750.4,528.3,731.1,571.9,704,610.7z M766.2,339.5c6,38.7,6,78-0.1,116.7
			c-16.6,2.9-38.5,6.6-63.7,10.6c4.6-28.4,6.9-54,6.9-76.5c-0.1-19.9-1.7-39.7-4.7-59.3C729.4,334.3,750.5,337.3,766.2,339.5
			L766.2,339.5z M761.3,313.9c-16.4-2.3-37.2-5.2-60.9-8.3c-7.3-38.5-19-81.8-35-129.6c17.1,6,31.9,11.4,43.5,15.8
			C733.6,229,751.3,270.3,761.3,313.9L761.3,313.9z M683.6,157.9c-8.6-3.1-17.9-6.3-27.8-9.7c-3.8-10.7-7.6-20.9-11.2-30.4
			C658.6,130.3,671.6,143.6,683.6,157.9z M676.3,302.5c-32-4-67.8-8.1-104.5-11.7c-3.2-21.4-8.8-42.4-16.6-62.5
			c-13.4-34-32-57.8-53.4-69c-1.5-10.8-3-21.2-4.5-31.4c49,10.2,98.9,25,140.4,38.7C652.2,208,666.9,256,676.3,302.5L676.3,302.5z
			 M608.8,89.9c5.6,13.6,12.2,30.3,19.2,49.2l-7.5-2.4c-46.5-14.6-88.7-25.6-126.6-33.1c-4.2-27.4-8.3-51.2-11.5-69.5
			C527.6,44.7,570.5,63.6,608.8,89.9z M341.7,28.7c38-5.7,76.7-5.6,114.6,0.4c3.1,17.2,7.2,41.4,11.7,69.9
			c-28.4-4.6-54-6.9-76.5-6.9c-19.9,0.1-39.7,1.7-59.3,4.7C335.9,68.6,339.3,45,341.7,28.7z M391.5,115.1c24.6,0,52,3,80.2,7.9
			c1.4,9.4,2.8,19.2,4.2,29.2c-0.8,0-1.5-0.1-2.2-0.1c-37,0-68.4,35.5-85.8,91.2c-1.7-5.1-3.4-10.1-5.4-14.9
			c-14.4-36.3-34.6-61.1-57.9-71.2c1.5-12.6,3-24.9,4.5-36.6C351,117.1,372,115.1,391.5,115.1z M196.5,83.3
			c36.6-23.5,77-40.4,119.5-49.8c-2.5,17.3-5.7,40.6-9.2,67.6c-38.5,7.3-81.8,19-129.6,35.1C184.8,114.1,191.7,95.8,196.5,83.3
			L196.5,83.3z M303.7,125.2c-1.1,8.7-2.2,17.7-3.3,26.9c-46.9,0.5-84.9,58.2-96.2,141.8c-26.2,3.2-51.6,6.7-75.2,10.2
			c10.2-49,24.9-98.9,38.6-140.4C209.1,149.3,257.2,134.6,303.7,125.2L303.7,125.2z M162.8,107.7c-4.1,11.3-8.6,24.1-13.4,38.1
			c-14.4,5.1-27.9,10.2-40.1,15C125.4,141.3,143.3,123.5,162.8,107.7z M83.8,195.8c14.7-6.1,34.1-13.9,56.5-22.2
			c-0.8,2.5-1.6,5-2.4,7.5c-14.6,46.6-25.7,88.8-33.1,126.6c-28.7,4.5-53.6,8.7-72.1,11.9C42,275.7,59.3,233.7,83.8,195.8
			L83.8,195.8z M29.7,459.8c-6.3-37.8-6.8-76.3-1.6-114.2c17.3-3.1,42.4-7.4,72.1-12.1c-4.6,28.4-6.9,54-6.9,76.5
			c0.1,19.9,1.7,39.7,4.7,59.3C69.6,465.6,46,462.2,29.7,459.8L29.7,459.8z M35,485.6c17.3,2.5,40.4,5.7,67.3,9.2
			c7.3,38.5,19,81.8,35.1,129.6c-19.9-6.9-36.6-13.2-48.9-17.8C63.6,569.8,45.4,528.8,35,485.6L35,485.6z M114.7,640.8
			c9.8,3.5,20.7,7.3,32.2,11.2c4.1,11.4,8.1,22.2,12,32.3C143,671.1,128.2,656.5,114.7,640.8L114.7,640.8z M126.4,497.8
			c36.7,4.5,78.4,9.3,120.8,13.2c12.3,15.3,26.4,25.3,41.6,29.3c4.5,45.9,10.5,91.7,16.5,132c-49-10.2-98.9-25-140.4-38.6
			C150.5,592.4,135.8,544.3,126.4,497.8L126.4,497.8z M193.9,710.2c-5.6-13.6-12.1-30.2-19.1-49l7.5,2.4
			c46.5,14.6,88.7,25.6,126.6,33.1c4,25.6,7.7,48.2,10.8,65.9C275,753.1,232.3,735.4,193.9,710.2L193.9,710.2z M462,765.2
			c-38.4,6.7-77.7,7.3-116.3,1.9c-3-16.9-6.9-39.5-11-65.8c28.4,4.6,54,6.9,76.5,6.9c19.9-0.1,39.7-1.7,59.3-4.7
			C467.2,728.3,464.3,749.4,462,765.2L462,765.2z M411.2,685.3c-24.6,0-52-3-80.2-7.9c-6.2-41-12.5-88.4-17.3-136
			c14.2-2.6,27.3-10.5,39-22.7c20.4,1,40.1,1.5,58.5,1.5c5.5,0,11-0.1,16.7-0.2c11,11,23.1,18.1,36,20.9c4,0.9,8.2,1.3,12.3,1.3
			c4.2,0,8.4-0.5,12.5-1.4c-4.4,48.8-9.9,97.4-15.1,138.8C451.8,683.3,430.7,685.3,411.2,685.3L411.2,685.3z M487.8,759.8
			c2.3-16.4,5.2-37,8.2-60.5c38.5-7.3,81.8-19,129.6-35c-5.3,15.1-10.1,28.4-14.2,39.3C574,729.7,532.1,748.8,487.8,759.8
			L487.8,759.8z"/>
	</g>
</g>
</svg>
