<?xml version="1.0" standalone="no"?>
<!DOCTYPE svg PUBLIC "-//W3C//DTD SVG 20010904//EN"
 "http://www.w3.org/TR/2001/REC-SVG-20010904/DTD/svg10.dtd">
<svg version="1.0" xmlns="http://www.w3.org/2000/svg"
 width="16.000000pt" height="16.000000pt" viewBox="0 0 16.000000 16.000000"
 preserveAspectRatio="xMidYMid meet">
<metadata>
Created by potrace 1.11, written by Peter Selinger 2001-2013
</metadata>
<g transform="translate(0.000000,16.000000) scale(0.003200,-0.003200)"
fill="#000000" stroke="none">
<path d="M290 4232 l-25 -3 1 -1702 c1 -936 2 -1705 3 -1709 0 -3 152 -6 336
-7 l335 0 0 1710 0 1709 -37 1 c-126 3 -592 4 -613 1z"/>
<path d="M4108 4232 l-48 -3 0 -1709 0 -1708 337 1 338 2 0 1708 c0 1511 -2
1707 -15 1708 -49 3 -573 3 -612 1z"/>
<path d="M2345 3259 c-114 -14 -150 -21 -240 -50 -225 -71 -413 -213 -540
-404 -101 -153 -151 -281 -190 -484 -20 -105 -27 -395 -12 -533 10 -91 59
-277 96 -365 128 -299 358 -511 655 -602 38 -12 83 -23 100 -26 17 -3 42 -8
56 -10 119 -23 332 -23 460 0 14 3 41 7 60 10 99 17 280 92 374 157 68 47 203
176 244 233 118 166 183 332 227 585 11 60 13 382 4 450 -17 120 -19 135 -45
230 -113 428 -427 722 -848 796 -100 17 -308 24 -401 13z m268 -549 c91 -19
171 -70 220 -140 64 -90 107 -202 125 -329 9 -62 9 -405 -1 -461 -35 -211
-126 -364 -252 -426 -62 -30 -80 -34 -171 -41 -138 -11 -259 33 -347 123 -62
64 -125 213 -143 339 -3 28 -8 59 -11 70 -6 29 -4 294 2 338 3 20 7 54 10 75
11 73 30 135 68 222 83 189 276 278 500 230z"/>
</g>
</svg>
